<?xml version="1.0" standalone="no"?>
<!DOCTYPE svg PUBLIC "-//W3C//DTD SVG 20010904//EN"
 "http://www.w3.org/TR/2001/REC-SVG-20010904/DTD/svg10.dtd">
<svg version="1.0" xmlns="http://www.w3.org/2000/svg"
 width="180.000000pt" height="180.000000pt" viewBox="0 0 180.000000 180.000000"
 preserveAspectRatio="xMidYMid meet">
<metadata>
Created by potrace 1.11, written by Peter Selinger 2001-2013
</metadata>
<g transform="translate(0.000000,180.000000) scale(0.100000,-0.100000)"
fill="#000000" stroke="none">
<path d="M780 1759 c-19 -5 -43 -11 -53 -14 -10 -2 -41 -15 -70 -29 -29 -13
-79 -37 -112 -51 -33 -15 -68 -34 -77 -43 -28 -28 -47 -42 -55 -42 -18 0 -103
-105 -131 -162 -42 -85 -66 -223 -57 -325 7 -79 24 -145 35 -138 3 2 7 -14 7
-36 1 -22 -3 -39 -9 -39 -5 0 -8 -7 -4 -15 3 -8 -1 -20 -8 -27 -21 -19 9 -128
62 -228 24 -47 48 -89 52 -95 4 -5 25 -41 45 -80 21 -38 42 -77 46 -85 5 -8
19 -41 33 -72 25 -57 120 -168 143 -168 7 0 13 -4 13 -9 0 -17 97 -49 172 -55
90 -8 153 7 263 61 48 24 88 54 127 97 32 33 69 72 82 87 19 21 32 45 41 79 1
3 4 12 7 20 4 8 14 40 24 70 10 30 30 66 45 80 41 39 106 132 114 165 4 17 9
39 12 50 8 36 14 120 9 140 -3 11 -15 31 -27 44 -18 19 -20 26 -10 44 6 12 13
37 14 54 1 18 6 33 11 33 4 0 6 39 2 88 -7 107 -10 125 -31 182 -9 25 -18 52
-20 61 -5 22 -28 59 -37 59 -5 0 -8 4 -8 10 0 14 -104 125 -132 141 -10 5 -18
16 -18 23 0 8 -9 16 -21 19 -14 4 -18 10 -13 19 4 7 4 10 -1 6 -4 -4 -34 6
-66 22 -32 17 -68 30 -79 30 -12 0 -31 5 -43 12 -12 7 -29 14 -37 16 -34 9
-208 10 -240 1z"/>
</g>
</svg>
